<svg width="187" height="52" viewBox="0 0 187 52" fill="none" xmlns="http://www.w3.org/2000/svg">
<circle cx="23" cy="23" r="23" fill="#B5B9FF"/>
<mask id="mask0_301_152" style="mask-type:luminance" maskUnits="userSpaceOnUse" x="7" y="7" width="33" height="18">
<path d="M7 7H39.2677V24.0967H7V7Z" fill="white"/>
</mask>
<g mask="url(#mask0_301_152)">
<path d="M33.6545 18.0884L39.1694 19.7802L39.1995 20.0801C34.854 21.3208 30.5523 22.7181 26.1629 23.729C25.1874 23.9457 24.1993 24.0544 23.1996 24.0544C22.1998 24.0544 21.2117 23.9457 20.2362 23.729C15.782 22.7443 11.4187 21.351 7.02148 20.1403L7.04767 19.7979L12.5488 18.1054C12.9266 16.3134 13.3221 14.4997 13.7136 12.6429C13.9395 11.5756 14.1477 10.4737 14.3828 9.432C14.7782 7.77877 15.8212 7.02385 17.5242 7.12403C17.9223 7.1345 18.3178 7.17313 18.7106 7.24057C20.157 7.52408 21.617 7.6655 23.0909 7.6655C24.5647 7.6655 26.0248 7.52408 27.4711 7.24057C27.7592 7.19409 28.0492 7.16266 28.3406 7.14563C30.3742 6.97606 31.4166 7.71788 31.8513 9.7489C32.4033 12.2697 32.9074 14.8035 33.4332 17.3334C33.5026 17.5371 33.5766 17.78 33.6545 18.0884Z" fill="white"/>
</g>
<mask id="mask1_301_152" style="mask-type:luminance" maskUnits="userSpaceOnUse" x="7" y="36" width="32" height="17">
<path d="M7.83984 36.8359H38.3457V52.0004H7.83984V36.8359Z" fill="white"/>
</mask>
<g mask="url(#mask1_301_152)">
<path d="M8.10049 49.2111C7.68735 44.4819 8.05269 40.1383 12.1809 36.9229L23.1007 45.4928L33.917 37.0053C37.7453 39.5006 38.7144 44.1172 38.0491 49.2111C37.3839 54.305 30.3989 50.6722 23.1007 50.6843C15.7863 50.6964 8.51363 53.9403 8.10049 49.2111Z" fill="white"/>
</g>
<path d="M14.4655 27.0828C11.6803 26.7443 11.4845 25.7805 12.2014 23.0908C15.756 24.0972 19.2498 25.3903 23.0348 25.425C26.8199 25.4597 30.3398 24.1234 33.8983 23.1078C34.7678 25.0433 34.7678 26.8222 31.7606 27.0782C30.6613 31.8552 27.8884 34.9967 22.7219 34.8101C18.0025 34.6412 15.4516 31.6169 14.4655 27.0828Z" fill="white"/>
<path d="M36.0282 33.5564L25.625 41.757C27.2547 37.8129 28.8365 33.8602 32.2215 30.8398L36.0282 33.5564Z" fill="white"/>
<path d="M20.5623 41.5527C20.2173 41.3785 19.884 41.1834 19.5632 40.9673C16.4865 38.5546 13.4145 36.1294 10.1768 33.591L14.0096 30.8398C14.244 30.6754 17.3207 34.7754 17.5944 35.2482C18.7506 37.2445 19.6195 39.4575 20.6363 41.5357L20.5623 41.5527Z" fill="white"/>
<path d="M26.8765 35.4961C25.5467 38.1517 24.378 40.4859 23.096 43.0374L19.3633 35.5786C19.967 35.7933 20.585 35.9538 21.2175 36.0592C21.8493 36.1646 22.4864 36.2137 23.1274 36.2065C23.7677 36.1993 24.4035 36.1364 25.0334 36.0173C25.6632 35.8975 26.2774 35.7239 26.8765 35.4961Z" fill="white"/>
<path d="M20.615 41.5012L20.8193 41.6616L20.5626 41.5529L20.615 41.5012Z" fill="white"/>
<path d="M70.72 17.176C69.472 17.176 68.4 16.936 67.504 16.456C66.608 15.976 65.92 15.2987 65.44 14.424C64.9707 13.5493 64.736 12.5253 64.736 11.352C64.736 10.1787 64.9707 9.16 65.44 8.296C65.92 7.42133 66.608 6.744 67.504 6.264C68.4 5.784 69.472 5.544 70.72 5.544C71.4667 5.544 72.1867 5.66133 72.88 5.896C73.5733 6.12 74.1333 6.41867 74.56 6.792L73.68 9.112C73.2107 8.77067 72.7413 8.52 72.272 8.36C71.8027 8.18933 71.3227 8.104 70.832 8.104C69.84 8.104 69.0933 8.38667 68.592 8.952C68.0907 9.50667 67.84 10.3067 67.84 11.352C67.84 12.408 68.0907 13.2187 68.592 13.784C69.0933 14.3387 69.84 14.616 70.832 14.616C71.3227 14.616 71.8027 14.536 72.272 14.376C72.7413 14.2053 73.2107 13.9493 73.68 13.608L74.56 15.928C74.1333 16.3013 73.5733 16.6053 72.88 16.84C72.1867 17.064 71.4667 17.176 70.72 17.176ZM82.6578 17.176C81.5164 17.176 80.5138 16.936 79.6498 16.456C78.7964 15.9653 78.1298 15.2827 77.6498 14.408C77.1698 13.5333 76.9298 12.5147 76.9298 11.352C76.9298 10.1787 77.1644 9.16 77.6338 8.296C78.1138 7.42133 78.7858 6.744 79.6498 6.264C80.5138 5.784 81.5164 5.544 82.6578 5.544C83.7991 5.544 84.7964 5.784 85.6498 6.264C86.5138 6.744 87.1858 7.42133 87.6658 8.296C88.1458 9.16 88.3858 10.1787 88.3858 11.352C88.3858 12.5147 88.1458 13.5333 87.6658 14.408C87.1858 15.2827 86.5138 15.9653 85.6498 16.456C84.7964 16.936 83.7991 17.176 82.6578 17.176ZM82.6578 14.712C83.4898 14.712 84.1404 14.4187 84.6098 13.832C85.0898 13.2347 85.3298 12.408 85.3298 11.352C85.3298 10.296 85.0951 9.47467 84.6258 8.888C84.1564 8.30133 83.5004 8.008 82.6578 8.008C81.8151 8.008 81.1591 8.30133 80.6898 8.888C80.2204 9.47467 79.9858 10.296 79.9858 11.352C79.9858 12.408 80.2204 13.2347 80.6898 13.832C81.1591 14.4187 81.8151 14.712 82.6578 14.712ZM91.756 17V5.72H94.204L97.804 12.184L101.404 5.72H103.788V17H101.132V10.872L98.556 15.336H96.956L94.412 10.936V17H91.756ZM107.465 17V5.72H112.889C114.169 5.72 115.155 6.05067 115.849 6.712C116.553 7.36267 116.905 8.264 116.905 9.416C116.905 10.568 116.553 11.4747 115.849 12.136C115.155 12.7867 114.169 13.112 112.889 13.112H110.409V17H107.465ZM110.409 10.856H112.377C113.529 10.856 114.105 10.376 114.105 9.416C114.105 8.456 113.529 7.976 112.377 7.976H110.409V10.856ZM119.877 17V5.72H122.821V14.552H127.845V17H119.877ZM130.837 17V5.72H133.781V17H130.837ZM136.061 17L141.341 5.72H143.661L148.941 17H145.997L145.021 14.712H139.981L139.005 17H136.061ZM142.477 8.792L140.941 12.456H144.045L142.509 8.792H142.477ZM151.224 17V5.72H153.384L158.568 12.184V5.72H161.288V17H159.144L153.96 10.536V17H151.224ZM170.645 17.176C169.397 17.176 168.325 16.936 167.429 16.456C166.533 15.976 165.845 15.2987 165.365 14.424C164.896 13.5493 164.661 12.5253 164.661 11.352C164.661 10.1787 164.896 9.16 165.365 8.296C165.845 7.42133 166.533 6.744 167.429 6.264C168.325 5.784 169.397 5.544 170.645 5.544C171.392 5.544 172.112 5.66133 172.805 5.896C173.498 6.12 174.058 6.41867 174.485 6.792L173.605 9.112C173.136 8.77067 172.666 8.52 172.197 8.36C171.728 8.18933 171.248 8.104 170.757 8.104C169.765 8.104 169.018 8.38667 168.517 8.952C168.016 9.50667 167.765 10.3067 167.765 11.352C167.765 12.408 168.016 13.2187 168.517 13.784C169.018 14.3387 169.765 14.616 170.757 14.616C171.248 14.616 171.728 14.536 172.197 14.376C172.666 14.2053 173.136 13.9493 173.605 13.608L174.485 15.928C174.058 16.3013 173.498 16.6053 172.805 16.84C172.112 17.064 171.392 17.176 170.645 17.176ZM177.533 17V5.72H185.501V7.992H180.349V10.136H185.133V12.408H180.349V14.728H185.501V17H177.533ZM70.464 39.176C69.3227 39.176 68.32 38.936 67.456 38.456C66.6027 37.9653 65.936 37.2827 65.456 36.408C64.976 35.5333 64.736 34.5147 64.736 33.352C64.736 32.1787 64.9707 31.16 65.44 30.296C65.92 29.4213 66.592 28.744 67.456 28.264C68.32 27.784 69.3227 27.544 70.464 27.544C71.6053 27.544 72.6027 27.784 73.456 28.264C74.32 28.744 74.992 29.4213 75.472 30.296C75.952 31.16 76.192 32.1787 76.192 33.352C76.192 34.5147 75.952 35.5333 75.472 36.408C74.992 37.2827 74.32 37.9653 73.456 38.456C72.6027 38.936 71.6053 39.176 70.464 39.176ZM70.464 36.712C71.296 36.712 71.9467 36.4187 72.416 35.832C72.896 35.2347 73.136 34.408 73.136 33.352C73.136 32.296 72.9013 31.4747 72.432 30.888C71.9627 30.3013 71.3067 30.008 70.464 30.008C69.6213 30.008 68.9653 30.3013 68.496 30.888C68.0267 31.4747 67.792 32.296 67.792 33.352C67.792 34.408 68.0267 35.2347 68.496 35.832C68.9653 36.4187 69.6213 36.712 70.464 36.712ZM79.5303 39V27.72H87.4023V29.992H82.4743V32.264H87.0503V34.52H82.4743V39H79.5303ZM90.3959 39V27.72H98.2679V29.992H93.3399V32.264H97.9159V34.52H93.3399V39H90.3959ZM101.261 39V27.72H104.205V39H101.261ZM113.542 39.176C112.294 39.176 111.222 38.936 110.326 38.456C109.43 37.976 108.742 37.2987 108.262 36.424C107.793 35.5493 107.558 34.5253 107.558 33.352C107.558 32.1787 107.793 31.16 108.262 30.296C108.742 29.4213 109.43 28.744 110.326 28.264C111.222 27.784 112.294 27.544 113.542 27.544C114.289 27.544 115.009 27.6613 115.702 27.896C116.395 28.12 116.955 28.4187 117.382 28.792L116.502 31.112C116.033 30.7707 115.563 30.52 115.094 30.36C114.625 30.1893 114.145 30.104 113.654 30.104C112.662 30.104 111.915 30.3867 111.414 30.952C110.913 31.5067 110.662 32.3067 110.662 33.352C110.662 34.408 110.913 35.2187 111.414 35.784C111.915 36.3387 112.662 36.616 113.654 36.616C114.145 36.616 114.625 36.536 115.094 36.376C115.563 36.2053 116.033 35.9493 116.502 35.608L117.382 37.928C116.955 38.3013 116.395 38.6053 115.702 38.84C115.009 39.064 114.289 39.176 113.542 39.176ZM120.43 39V27.72H128.398V29.992H123.246V32.136H128.03V34.408H123.246V36.728H128.398V39H120.43ZM131.858 39V27.72H137.282C138.562 27.72 139.549 28.0347 140.242 28.664C140.946 29.2827 141.298 30.1467 141.298 31.256C141.298 32.0987 141.085 32.808 140.658 33.384C140.242 33.9493 139.634 34.344 138.834 34.568C139.432 34.728 139.912 35.1387 140.274 35.8L142.034 39H138.802L136.85 35.416C136.722 35.192 136.557 35.032 136.354 34.936C136.162 34.84 135.938 34.792 135.682 34.792H134.802V39H131.858ZM134.802 32.712H136.754C137.917 32.712 138.498 32.2533 138.498 31.336C138.498 30.4293 137.917 29.976 136.754 29.976H134.802V32.712Z" fill="white"/>
</svg>
