<svg xmlns="http://www.w3.org/2000/svg" width="26" height="2" viewBox="0 0 26 2" fill="none">
  <path d="M26.0004 0.86219C26.0004 1.09073 25.9151 1.30991 25.7632 1.47151C25.6114 1.63311 25.4054 1.72389 25.1906 1.72389H14.1231H12.5035H1.43604C1.22126 1.72389 1.01528 1.63311 0.86341 1.47151C0.71154 1.30991 0.626221 1.09073 0.626221 0.86219C0.626221 0.633653 0.71154 0.414476 0.86341 0.252875C1.01528 0.0912748 1.22126 0.000488281 1.43604 0.000488281H12.5035V0.00508499L14.1231 0.00177002V0.000488281H25.1906C25.4054 0.000488281 25.6114 0.0912748 25.7632 0.252875C25.9151 0.414476 26.0004 0.633653 26.0004 0.86219Z" fill="black"/>
</svg>