<svg xmlns="http://www.w3.org/2000/svg" width="26" height="27" viewBox="0 0 26 27" fill="none">
  <path d="M26.0004 13.5001C26.0004 13.7287 25.9151 13.9478 25.7632 14.1094C25.6114 14.271 25.4054 14.3618 25.1906 14.3618H14.1231V26.1384C14.1231 26.367 14.0378 26.5861 13.8859 26.7477C13.7341 26.9093 13.5281 27.0001 13.3133 27.0001C13.0985 27.0001 12.8926 26.9093 12.7407 26.7477C12.5888 26.5861 12.5035 26.367 12.5035 26.1384V14.3618H1.43604C1.22126 14.3618 1.01528 14.271 0.86341 14.1094C0.71154 13.9478 0.626221 13.7287 0.626221 13.5001C0.626221 13.2716 0.71154 13.0524 0.86341 12.8908C1.01528 12.7292 1.22126 12.6384 1.43604 12.6384H12.5035V0.861824C12.5035 0.633287 12.5888 0.414109 12.7407 0.252509C12.8926 0.0909082 13.0985 0.00012207 13.3133 0.00012207C13.5281 0.00012207 13.7341 0.0909082 13.8859 0.252509C14.0378 0.414109 14.1231 0.633287 14.1231 0.861824V12.6384H25.1906C25.4054 12.6384 25.6114 12.7292 25.7632 12.8908C25.9151 13.0524 26.0004 13.2716 26.0004 13.5001Z" fill="black"/>
</svg>