<svg width="82" height="81" viewBox="0 0 82 81" fill="none" xmlns="http://www.w3.org/2000/svg">
<path fill-rule="evenodd" clip-rule="evenodd" d="M82 40.5C82 62.8682 63.6443 81 41 81C34.44 81 28.2408 79.4772 22.7468 76.7718C21.2955 76.0309 19.6202 75.8393 18.0359 76.2332L8.90934 78.647C8.006 78.8851 7.05514 78.8843 6.15221 78.6446C5.24928 78.405 4.42604 77.9349 3.76514 77.2817C3.10423 76.6284 2.62891 75.8149 2.38689 74.9229C2.14486 74.0308 2.14464 73.0915 2.38625 72.1993L4.82575 63.1841C5.22253 61.6199 5.02715 59.9665 4.27635 58.5346C1.45404 52.9321 -0.00998476 46.7578 5.12515e-05 40.5C5.12515e-05 18.1319 18.3557 0 41 0C63.6443 0 82 18.1319 82 40.5ZM55.473 30.2535C56.0489 30.823 56.3723 31.5951 56.3723 32.4C56.3723 33.2049 56.0489 33.977 55.473 34.5465L39.073 50.7465C38.5041 51.309 37.7346 51.6288 36.9297 51.6371C36.1248 51.6455 35.3487 51.3417 34.768 50.7911L26.568 43.0151C25.9798 42.4565 25.6402 41.69 25.624 40.8841C25.6161 40.4851 25.6877 40.0885 25.8349 39.7168C25.9821 39.3451 26.202 39.0057 26.4819 38.718C26.7619 38.4303 27.0965 38.1998 27.4667 38.0398C27.8368 37.8798 28.2352 37.7934 28.6391 37.7855C29.4549 37.7696 30.2438 38.0744 30.832 38.6329L36.859 44.3475L51.127 30.2535C51.7036 29.6847 52.4851 29.3652 53.3 29.3652C54.1149 29.3652 54.8964 29.6847 55.473 30.2535Z" fill="#545CE7"/>
</svg>
