<svg width="567" height="418" viewBox="0 0 567 418" fill="none" xmlns="http://www.w3.org/2000/svg">
<g clip-path="url(#clip0_45_1305)">
<path d="M201.915 370.401C197.547 370.401 193.18 369.561 190.156 367.713L35.4443 278.347C32.4206 276.499 30.5728 274.147 30.5728 271.291C30.5728 267.932 33.0925 264.74 37.2921 262.22L332.437 92.0542C340.5 87.3507 352.595 86.8468 359.65 90.8784L514.362 180.245C517.386 182.093 519.233 184.445 519.233 187.3C519.233 190.66 516.714 193.852 512.514 196.371L217.369 366.537C213.002 369.057 207.29 370.401 201.915 370.401ZM190.492 367.041C197.211 370.905 209.138 370.401 217.033 365.865L512.01 195.531C516.042 193.18 518.393 190.156 518.393 187.132C518.393 184.613 516.882 182.429 513.858 180.749L359.146 91.3823C352.427 87.5187 340.5 88.0227 332.605 92.5582L37.796 262.892C33.7644 265.244 31.4127 268.268 31.4127 271.291C31.4127 273.811 32.9245 275.995 35.9482 277.675L190.492 367.041Z" fill="#C4C7FF"/>
<path d="M518.729 145.977L496.556 149.84L359.314 70.5526C352.427 66.521 340.5 67.0249 332.437 71.7284L70.2166 223.081L30.9088 229.8V243.742C30.9088 246.262 32.4206 248.782 35.6123 250.462L190.324 339.828C197.211 343.86 209.138 343.356 217.201 338.652L512.178 168.318C516.378 165.799 518.729 162.775 518.729 159.751V145.977Z" fill="url(#paint0_linear_45_1305)"/>
<path d="M190.324 325.886L35.6123 236.519C28.725 232.487 29.5649 225.6 37.4601 221.065L332.605 50.7306C340.5 46.1951 352.595 45.6911 359.482 49.5547L514.026 138.921C520.913 142.953 520.073 149.84 512.178 154.376L217.201 324.71C209.138 329.413 197.211 329.917 190.324 325.886Z" fill="#24126A"/>
<path d="M512.01 154.544L217.201 324.71C209.306 329.245 197.211 329.749 190.324 325.886L35.6123 236.519C32.9245 235.007 31.4127 232.823 31.0767 230.64C30.5728 233.495 32.0846 236.351 35.6123 238.367L190.324 327.734C197.211 331.765 209.138 331.261 217.201 326.558L512.01 156.224C516.714 153.536 518.897 149.84 518.561 146.649C518.225 149.336 516.042 152.192 512.01 154.544Z" fill="white"/>
<path opacity="0.51" d="M190.66 322.358L41.4916 236.183C34.7723 232.319 35.6122 225.6 43.3394 221.233L332.773 54.0902C340.5 49.7227 352.091 49.2188 358.81 53.0823L507.979 139.257C514.698 143.121 513.858 149.84 506.131 154.208L216.697 321.35C208.97 325.718 197.211 326.222 190.66 322.358Z" fill="#453C9E"/>
<path opacity="0.8" d="M201.915 321.686C197.547 321.686 193.516 320.846 190.324 318.998L41.1557 232.824C38.132 231.144 36.4522 228.624 36.4522 225.936C36.4522 222.745 38.8039 219.385 43.0035 217.033L332.605 49.8907C340.332 45.3552 352.259 44.8513 358.978 48.8829L508.147 135.058C511.17 136.738 512.85 139.257 512.85 141.945C512.85 145.137 510.498 148.496 506.299 150.848L216.865 317.991C212.498 320.342 207.122 321.686 201.915 321.686ZM190.828 318.158C197.379 321.854 208.802 321.518 216.361 317.151L505.795 150.008C509.658 147.824 511.842 144.801 511.842 141.945C511.842 139.593 510.33 137.41 507.643 135.898L358.474 49.7228C351.923 46.0272 340.5 46.3631 332.941 50.7307L43.5074 217.873C39.6438 220.057 37.4601 223.081 37.4601 225.936C37.4601 228.288 38.9719 230.472 41.6596 231.984L190.828 318.158Z" fill="url(#paint1_linear_45_1305)"/>
<path opacity="0.4" d="M194.356 284.226L103.813 231.984C97.2618 228.288 98.1017 221.569 105.661 217.369C113.22 213.002 124.643 212.498 131.026 216.361L221.569 268.604C228.12 272.299 227.28 279.019 219.721 283.218C212.33 287.586 200.907 287.922 194.356 284.226Z" fill="#24126A"/>
<path d="M99.4454 96.7578V205.778C99.4454 208.13 100.957 210.314 103.813 212.162L194.355 264.404C200.907 268.1 212.33 267.764 219.721 263.396C223.92 260.877 226.104 257.853 225.936 254.829V145.641L99.4454 96.7578Z" fill="#C3C7FF"/>
<path d="M194.355 155.216L103.813 102.973C97.2616 99.2775 98.1015 92.5582 105.661 88.3587C113.22 83.9911 124.643 83.4872 131.026 87.3508L221.737 139.593C228.288 143.289 227.448 150.008 219.889 154.208C212.329 158.575 200.907 159.079 194.355 155.216Z" fill="#F5F5FF"/>
<path d="M203.426 148.328C199.059 148.328 195.531 144.801 195.531 140.433V92.0543C195.531 75.592 183.437 54.5942 169.158 46.3631L148.328 34.4363C142.785 31.2447 137.913 30.5727 134.722 32.2526C131.53 34.1004 129.682 38.8039 129.682 45.0192V93.3981C129.682 97.7657 126.155 101.293 121.787 101.293C117.419 101.293 113.892 97.7657 113.892 93.3981V45.0192C113.892 32.7565 118.427 23.3495 126.659 18.646C134.89 13.9425 145.305 14.6144 155.887 20.8298L176.717 32.7565C195.867 43.8433 210.986 69.8806 210.986 92.0543V140.433C211.322 144.801 207.794 148.328 203.426 148.328Z" fill="#C3C7FF"/>
<path opacity="0.4" d="M341.172 209.978L237.863 150.344C230.808 146.313 231.648 139.257 239.879 134.554C247.942 129.85 260.205 129.346 267.26 133.378L370.569 193.012C377.624 197.043 376.784 204.099 368.553 208.802C360.49 213.674 348.227 214.177 341.172 209.978Z" fill="#24126A"/>
<path opacity="0.4" d="M341.172 202.587L237.863 142.953C230.808 138.921 231.648 131.866 239.879 127.163C247.942 122.459 260.205 121.955 267.26 125.987L370.569 185.62C377.624 189.652 376.784 196.707 368.553 201.411C360.49 206.282 348.227 206.786 341.172 202.587Z" fill="#C3C7FF"/>
<path d="M353.099 205.778C348.563 205.778 344.196 204.938 341.004 202.923L237.695 143.289C234.503 141.441 232.824 138.921 232.824 136.066C232.824 132.706 235.343 129.346 239.711 126.827C247.942 122.123 260.373 121.619 267.428 125.651L370.737 185.285C373.929 187.132 375.608 189.652 375.608 192.508C375.608 195.867 373.089 199.227 368.721 201.747C364.354 204.435 358.642 205.778 353.099 205.778ZM341.34 202.419C348.227 206.45 360.49 205.946 368.385 201.243C372.585 198.891 374.937 195.699 374.937 192.508C374.937 189.988 373.257 187.636 370.401 185.956L267.092 126.323C260.205 122.291 247.942 122.795 240.047 127.499C235.847 129.85 233.495 133.042 233.495 136.234C233.495 138.753 235.175 141.105 238.031 142.785L341.34 202.419Z" fill="#C3C7FF"/>
<path opacity="0.4" d="M359.986 197.043C357.634 198.387 353.603 198.387 351.251 197.043C348.899 195.699 348.899 193.348 351.251 192.004C353.603 190.66 357.634 190.66 359.986 192.004C362.338 193.348 362.338 195.699 359.986 197.043Z" fill="#C3C7FF"/>
<path d="M355.619 198.387C353.939 198.387 352.427 198.051 351.083 197.379C349.907 196.707 349.235 195.699 349.235 194.692C349.235 193.684 349.907 192.676 351.083 192.004C353.603 190.66 357.634 190.66 359.986 192.004C361.162 192.676 361.834 193.684 361.834 194.692C361.834 195.699 361.162 196.707 359.986 197.379C358.81 198.051 357.298 198.387 355.619 198.387ZM355.619 191.164C354.107 191.164 352.595 191.5 351.419 192.172C350.411 192.844 349.739 193.684 349.739 194.524C349.739 195.364 350.411 196.203 351.419 196.875C353.771 198.219 357.634 198.219 359.986 196.875C360.994 196.203 361.666 195.364 361.666 194.524C361.666 193.684 360.994 192.844 359.986 192.172C358.642 191.5 357.13 191.164 355.619 191.164Z" fill="#C3C7FF"/>
<path opacity="0.4" d="M345.54 188.644C343.188 189.988 339.156 189.988 336.805 188.644C334.453 187.3 334.453 184.949 336.805 183.605C339.156 182.261 343.188 182.261 345.54 183.605C347.891 184.949 347.891 187.132 345.54 188.644Z" fill="#C3C7FF"/>
<path d="M341.172 187.132C339.492 187.132 337.98 186.796 336.637 186.124C335.461 185.452 334.789 184.445 334.789 183.437C334.789 182.429 335.461 181.421 336.637 180.749C339.156 179.405 343.188 179.405 345.54 180.749C346.716 181.421 347.387 182.429 347.387 183.437C347.387 184.445 346.716 185.452 345.54 186.124C344.364 186.796 342.684 187.132 341.172 187.132ZM341.172 179.909C339.66 179.909 338.148 180.245 336.973 180.917C335.965 181.589 335.293 182.429 335.293 183.269C335.293 184.109 335.965 184.949 336.973 185.62C339.324 186.964 343.188 186.964 345.54 185.62C346.548 184.949 347.219 184.109 347.219 183.269C347.219 182.429 346.548 181.589 345.54 180.917C344.196 180.245 342.684 179.909 341.172 179.909Z" fill="#C3C7FF"/>
<path d="M303.376 156.56C301.696 156.56 300.184 156.224 298.841 155.552C297.665 154.88 296.993 153.872 296.993 152.864C296.993 151.856 297.665 150.848 298.841 150.176C301.36 148.832 305.392 148.832 307.744 150.176C308.919 150.848 309.591 151.856 309.591 152.864C309.591 153.872 308.919 154.88 307.744 155.552C306.568 156.224 305.056 156.56 303.376 156.56ZM303.376 149.336C301.864 149.336 300.352 149.672 299.177 150.344C298.169 151.016 297.497 151.856 297.497 152.696C297.497 153.536 298.169 154.376 299.177 155.048C301.528 156.392 305.392 156.392 307.744 155.048C308.751 154.376 309.423 153.536 309.423 152.696C309.423 151.856 308.751 151.016 307.744 150.344C306.4 149.84 304.888 149.336 303.376 149.336Z" fill="#C3C7FF"/>
<path opacity="0.4" d="M307.744 167.478C305.392 168.822 301.36 168.822 299.009 167.478C296.657 166.135 296.657 163.783 299.009 162.439C301.36 161.095 305.392 161.095 307.744 162.439C310.095 163.783 310.095 166.135 307.744 167.478Z" fill="#C3C7FF"/>
<path d="M288.93 140.937C287.25 140.937 285.738 140.601 284.394 139.929C283.218 139.257 282.546 138.249 282.546 137.242C282.546 136.234 283.218 135.226 284.394 134.554C286.914 133.21 290.945 133.21 293.297 134.554C294.473 135.226 295.145 136.234 295.145 137.242C295.145 138.249 294.473 139.257 293.297 139.929C292.121 140.601 290.441 140.937 288.93 140.937ZM288.93 133.714C287.418 133.714 285.906 134.05 284.73 134.722C283.722 135.394 283.05 136.234 283.05 137.074C283.05 137.913 283.722 138.753 284.73 139.425C287.082 140.769 290.945 140.769 293.297 139.425C294.305 138.753 294.977 137.913 294.977 137.074C294.977 136.234 294.305 135.394 293.297 134.722C291.953 134.218 290.441 133.714 288.93 133.714Z" fill="#C3C7FF"/>
<path opacity="0.4" d="M293.297 159.751C290.945 161.095 286.914 161.095 284.562 159.751C282.21 158.407 282.21 156.056 284.562 154.712C286.914 153.368 290.945 153.368 293.297 154.712C295.649 156.056 295.649 158.407 293.297 159.751Z" fill="#C3C7FF"/>
<path d="M274.315 121.955C272.635 121.955 271.123 121.619 269.78 120.947C268.604 120.275 267.932 119.267 267.932 118.26C267.932 117.252 268.604 116.244 269.78 115.572C272.299 114.228 276.331 114.228 278.683 115.572C279.859 116.244 280.53 117.252 280.53 118.26C280.53 119.267 279.859 120.275 278.683 120.947C277.675 121.619 275.995 121.955 274.315 121.955ZM274.315 114.732C272.803 114.732 271.291 115.068 270.116 115.74C269.108 116.412 268.436 117.252 268.436 118.092C268.436 118.932 269.108 119.771 270.116 120.443C272.467 121.787 276.331 121.787 278.683 120.443C279.691 119.771 280.362 118.932 280.362 118.092C280.362 117.252 279.691 116.412 278.683 115.74C277.507 115.068 275.827 114.732 274.315 114.732Z" fill="#C3C7FF"/>
<path opacity="0.4" d="M278.515 151.688C276.163 153.032 272.131 153.032 269.78 151.688C267.428 150.344 267.428 147.992 269.78 146.649C272.131 145.305 276.163 145.305 278.515 146.649C280.866 147.992 280.866 150.344 278.515 151.688Z" fill="#C3C7FF"/>
<path opacity="0.4" d="M320.006 169.326L332.605 176.549C334.621 177.725 334.453 179.909 332.101 181.253C329.749 182.597 326.054 182.765 324.038 181.589L311.439 174.366C309.423 173.19 309.591 171.006 311.943 169.662C314.295 168.318 317.991 168.15 320.006 169.326Z" fill="#C3C7FF"/>
<path d="M327.566 176.885C326.222 176.885 324.878 176.549 323.87 176.046L311.271 168.822C310.263 168.318 309.759 167.478 309.759 166.639C309.759 165.631 310.599 164.623 311.943 163.783C314.463 162.439 318.159 162.271 320.342 163.447L332.941 170.67C333.949 171.174 334.453 172.014 334.453 172.854C334.453 173.862 333.613 174.87 332.269 175.71C330.925 176.382 329.077 176.885 327.566 176.885ZM316.479 162.943C314.967 162.943 313.287 163.279 311.943 164.119C310.767 164.791 310.095 165.631 310.095 166.639C310.095 167.31 310.599 167.982 311.439 168.486L324.038 175.71C326.054 176.885 329.581 176.717 331.933 175.374C333.109 174.702 333.781 173.862 333.781 172.854C333.781 172.182 333.277 171.51 332.437 171.006L319.838 163.783C318.998 163.111 317.823 162.943 316.479 162.943Z" fill="#C3C7FF"/>
<path opacity="0.4" d="M476.062 149.672C473.71 151.016 470.015 151.016 467.831 149.672C465.647 148.328 465.479 146.145 467.831 144.969C470.182 143.625 473.878 143.625 476.062 144.969C478.414 146.313 478.414 148.328 476.062 149.672Z" fill="#24126A"/>
<path opacity="0.4" d="M444.649 126.827L460.775 136.066C462.791 137.242 462.455 139.257 460.272 140.433C457.92 141.777 454.56 141.945 452.544 140.769L436.418 131.53C434.402 130.354 434.738 128.338 436.922 127.163C439.106 125.819 442.633 125.651 444.649 126.827Z" fill="#24126A"/>
<path opacity="0.4" d="M353.939 73.2403L370.065 82.4793C372.081 83.6552 371.745 85.671 369.561 86.8469C367.209 88.1907 363.85 88.3587 361.834 87.1828L345.708 77.9438C343.692 76.7679 344.028 74.7521 346.212 73.5763C348.563 72.2324 351.923 72.2324 353.939 73.2403Z" fill="#24126A"/>
<path d="M476.062 143.961C473.71 145.305 470.015 145.305 467.831 143.961C465.479 142.617 465.479 140.433 467.831 139.257C470.183 137.914 473.878 137.914 476.062 139.257C478.414 140.433 478.414 142.617 476.062 143.961Z" fill="#C3C7FF"/>
<path d="M444.649 120.947L460.775 130.186C462.791 131.362 462.455 133.378 460.272 134.554C457.92 135.898 454.56 136.066 452.544 134.89L436.418 125.651C434.402 124.475 434.738 122.459 436.922 121.283C439.106 119.939 442.633 119.939 444.649 120.947Z" fill="#C3C7FF"/>
<path d="M353.939 67.5289L370.065 76.7679C372.081 77.9438 371.745 79.9596 369.561 81.1355C367.209 82.4793 363.85 82.6473 361.834 81.4714L345.708 72.2324C343.692 71.0565 344.028 69.0407 346.212 67.8649C348.563 66.521 351.923 66.353 353.939 67.5289Z" fill="#C3C7FF"/>
<g opacity="0.3">
<path d="M566.436 347.387V339.828L564.421 338.652C563.749 342.18 559.717 344.532 556.189 345.036L532.336 358.978L521.921 362.674L488.829 345.54L489.668 345.036C486.813 343.692 485.301 340.668 483.789 337.98L481.605 339.324L480.261 339.66V347.387C480.261 348.899 481.269 350.411 483.117 351.419L516.378 370.569C520.241 372.753 526.625 372.753 530.488 370.569L563.749 351.419C565.596 350.243 566.604 348.899 566.604 347.387C566.436 347.387 566.436 347.387 566.436 347.387Z" fill="url(#paint2_linear_45_1305)"/>
<path opacity="0.3" d="M556.189 345.036L532.336 358.978L523.265 362.17V372.417C525.785 372.417 528.304 371.913 530.32 370.737L563.581 351.587C565.428 350.411 566.436 349.067 566.436 347.555V347.387V339.828L564.589 338.82H564.421C563.749 342.18 559.549 344.532 556.189 345.036Z" fill="#0F054C"/>
<path d="M516.21 363.01L482.949 343.86C479.086 341.676 479.086 337.98 482.949 335.629L516.21 316.479C520.073 314.295 526.457 314.295 530.32 316.479L563.581 335.629C567.444 337.812 567.444 341.508 563.581 343.86L530.32 363.01C526.457 365.362 520.073 365.362 516.21 363.01Z" fill="url(#paint3_linear_45_1305)"/>
<g opacity="0.3">
<path d="M516.21 363.01L482.949 343.86C479.086 341.676 479.086 337.98 482.949 335.629L516.21 316.479C520.073 314.295 526.457 314.295 530.32 316.479L563.581 335.629C567.444 337.812 567.444 341.508 563.581 343.86L530.32 363.01C526.457 365.362 520.073 365.362 516.21 363.01Z" fill="#0F054C"/>
</g>
</g>
<path d="M523.265 338.82C520.913 338.82 518.729 338.316 517.05 337.309L483.789 318.159C482.109 317.151 481.101 315.807 481.101 314.295C481.101 312.783 482.109 311.439 483.789 310.431L517.05 291.281C520.577 289.266 526.121 289.266 529.648 291.281L562.909 310.431C564.589 311.439 565.596 312.783 565.596 314.295C565.596 315.807 564.589 317.151 562.909 318.159L529.648 337.309C527.8 338.316 525.617 338.82 523.265 338.82ZM523.265 290.441C521.081 290.441 518.897 290.945 517.218 291.785L483.957 310.935C482.445 311.775 481.605 312.951 481.605 314.295C481.605 315.639 482.445 316.647 483.957 317.655L517.218 336.805C520.577 338.652 525.785 338.652 529.144 336.805L562.405 317.655C563.917 316.815 564.757 315.639 564.757 314.295C564.757 313.119 563.917 311.943 562.405 310.935L529.144 291.785C527.632 290.945 525.449 290.441 523.265 290.441Z" fill="#C3C7FF"/>
<path opacity="0.4" d="M566.436 306.904V295.649L564.421 294.473C563.749 298.001 559.717 300.352 556.189 300.856L532.336 314.799L521.921 318.495L488.829 301.36L489.668 300.856C486.813 299.513 485.301 296.489 483.789 293.801L481.605 295.145L480.261 295.481V307.072C480.261 308.584 481.269 310.095 483.117 311.103L516.378 330.253C520.241 332.437 526.625 332.437 530.488 330.253L563.749 311.103C565.596 309.927 566.604 308.584 566.604 307.072C566.436 307.072 566.436 307.072 566.436 306.904Z" fill="#C3C7FF"/>
<path d="M566.436 296.825V289.266L564.421 288.09C563.749 291.617 559.717 293.969 556.189 294.473L532.336 308.416L521.921 312.111L488.829 295.145L489.668 294.641C486.813 293.297 485.301 290.273 483.789 287.586L481.605 288.93L480.261 289.266V296.993C480.261 298.505 481.269 300.016 483.117 301.024L516.378 320.174C520.241 322.358 526.625 322.358 530.488 320.174L563.749 301.024C565.596 299.848 566.604 298.505 566.604 296.993C566.436 296.993 566.436 296.993 566.436 296.825Z" fill="url(#paint4_linear_45_1305)"/>
<path opacity="0.3" d="M556.189 294.641L532.336 308.584L523.265 311.775V322.022C525.785 322.022 528.304 321.518 530.32 320.342L563.581 301.192C565.428 300.016 566.436 298.673 566.436 297.161V296.993V289.434L564.589 288.426H564.421C563.749 291.785 559.549 294.137 556.189 294.641Z" fill="#0F054C"/>
<path d="M516.21 312.615L482.949 293.465C479.086 291.281 479.086 287.586 482.949 285.234L516.21 266.084C520.073 263.9 526.457 263.9 530.32 266.084L563.581 285.234C567.444 287.418 567.444 291.113 563.581 293.297L530.32 312.447C526.457 314.799 520.073 314.799 516.21 312.615Z" fill="url(#paint5_linear_45_1305)"/>
<path d="M563.581 293.465L530.32 312.615C526.457 314.799 520.073 314.799 516.21 312.615L482.949 293.465C481.269 292.457 480.261 291.113 480.093 289.938C479.925 291.617 480.765 293.297 482.949 294.473L516.21 313.623C520.073 315.807 526.457 315.807 530.32 313.623L563.581 294.473C565.764 293.297 566.772 291.617 566.436 289.938C566.268 291.113 565.26 292.457 563.581 293.465Z" fill="white"/>
<g opacity="0.3">
<path d="M418.612 392.071V384.511L416.596 383.336C415.924 386.863 411.893 389.215 408.365 389.719L384.512 403.661L374.097 407.357L341.004 390.223L341.844 389.719C338.988 388.375 337.476 385.351 335.965 382.664L333.781 384.008L332.437 384.344V392.071C332.437 393.583 333.445 395.094 335.293 396.102L368.553 415.252C372.417 417.436 378.8 417.436 382.664 415.252L415.924 396.102C417.772 394.926 418.78 393.583 418.78 392.071C418.612 392.239 418.612 392.239 418.612 392.071Z" fill="url(#paint6_linear_45_1305)"/>
<path opacity="0.3" d="M408.197 389.719L384.344 403.662L375.272 406.853V417.1C377.792 417.1 380.312 416.596 382.328 415.42L415.588 396.27C417.436 395.094 418.444 393.751 418.444 392.239V392.071V384.512L416.596 383.504H416.428C415.756 387.031 411.725 389.383 408.197 389.719Z" fill="#0F054C"/>
<path d="M368.385 407.861L335.125 388.711C331.261 386.527 331.261 382.832 335.125 380.48L368.385 361.33C372.249 359.146 378.632 359.146 382.496 361.33L415.756 380.48C419.62 382.664 419.62 386.359 415.756 388.711L382.496 407.861C378.464 410.045 372.249 410.045 368.385 407.861Z" fill="url(#paint7_linear_45_1305)"/>
<g opacity="0.3">
<path d="M368.385 407.861L335.125 388.711C331.261 386.527 331.261 382.832 335.125 380.48L368.385 361.33C372.249 359.146 378.632 359.146 382.496 361.33L415.756 380.48C419.62 382.664 419.62 386.359 415.756 388.711L382.496 407.861C378.464 410.045 372.249 410.045 368.385 407.861Z" fill="#0F054C"/>
</g>
</g>
<path d="M375.44 379.976C373.089 379.976 370.905 379.472 369.225 378.464L335.965 359.314C334.285 358.306 333.277 356.962 333.277 355.451C333.277 353.939 334.285 352.595 335.965 351.587L369.225 332.437C372.753 330.421 378.296 330.421 381.824 332.437L415.084 351.587C416.764 352.595 417.772 353.939 417.772 355.451C417.772 356.962 416.764 358.306 415.084 359.314L381.824 378.464C379.976 379.472 377.624 379.976 375.44 379.976ZM369.393 377.96C372.753 379.808 377.96 379.808 381.32 377.96L414.58 358.81C416.092 357.97 416.932 356.794 416.932 355.451C416.932 354.275 416.092 353.099 414.58 352.091L381.32 332.941C377.96 331.093 372.753 331.093 369.393 332.941L336.133 352.091C334.621 352.931 333.781 354.107 333.781 355.451C333.781 356.626 334.621 357.802 336.133 358.81L369.393 377.96Z" fill="#C3C7FF"/>
<path opacity="0.4" d="M418.612 348.059V336.637L416.596 335.461C415.924 338.988 411.893 341.34 408.365 341.844L384.512 355.787L374.097 359.482L341.004 342.348L341.844 341.844C338.988 340.5 337.476 337.476 335.965 334.789L333.781 336.133L332.437 336.469V348.059C332.437 349.571 333.445 351.083 335.293 352.091L368.553 371.241C372.417 373.425 378.8 373.425 382.664 371.241L415.924 352.091C417.772 350.915 418.78 349.571 418.78 348.059C418.612 348.227 418.612 348.227 418.612 348.059Z" fill="#C3C7FF"/>
<path d="M418.612 337.98V330.421L416.596 329.245C415.924 332.773 411.893 335.125 408.365 335.629L384.512 349.571L374.097 353.267L341.004 336.133L341.844 335.629C338.988 334.285 337.476 331.261 335.965 328.573L333.781 329.917L332.437 330.253V337.98C332.437 339.492 333.445 341.004 335.293 342.012L368.553 361.162C372.417 363.346 378.8 363.346 382.664 361.162L415.924 342.012C417.772 340.836 418.78 339.492 418.78 337.98C418.612 338.148 418.612 337.98 418.612 337.98Z" fill="url(#paint8_linear_45_1305)"/>
<path opacity="0.3" d="M408.197 335.629L384.344 349.571L375.272 352.763V363.01C377.792 363.01 380.312 362.506 382.328 361.33L415.588 342.18C417.436 341.004 418.444 339.66 418.444 338.148V337.98V330.421L416.596 329.413H416.428C415.756 332.941 411.725 335.125 408.197 335.629Z" fill="#0F054C"/>
<path d="M368.385 353.771L335.125 334.621C331.261 332.437 331.261 328.741 335.125 326.39L368.385 307.24C372.249 305.056 378.632 305.056 382.496 307.24L415.756 326.39C419.62 328.573 419.62 332.269 415.756 334.621L382.496 353.771C378.464 355.955 372.249 355.955 368.385 353.771Z" fill="url(#paint9_linear_45_1305)"/>
<path d="M375.44 350.243C373.425 350.243 371.409 349.739 369.729 348.899L343.692 333.949C342.18 333.109 341.34 331.765 341.34 330.589C341.34 329.245 342.18 328.07 343.692 327.23L369.729 312.279C372.921 310.431 377.96 310.431 380.984 312.279L407.021 327.23C408.533 328.07 409.373 329.413 409.373 330.589C409.373 331.933 408.533 333.109 407.021 333.949L380.984 348.899C379.472 349.739 377.456 350.243 375.44 350.243ZM375.44 311.271C373.425 311.271 371.577 311.775 370.065 312.615L344.028 327.566C342.684 328.405 341.844 329.413 341.844 330.421C341.844 331.597 342.684 332.605 344.028 333.277L370.065 348.227C373.089 349.907 377.792 349.907 380.816 348.227L406.853 333.277C408.197 332.437 409.037 331.429 409.037 330.421C409.037 329.245 408.197 328.237 406.853 327.566L380.816 312.615C379.304 311.607 377.288 311.271 375.44 311.271Z" fill="#5351AF"/>
<path d="M415.588 334.453L382.328 353.603C378.464 355.787 372.081 355.787 368.217 353.603L334.957 334.453C333.277 333.445 332.269 332.101 332.101 330.925C331.933 332.605 332.773 334.285 334.957 335.461L368.217 354.611C372.081 356.794 378.464 356.794 382.328 354.611L415.588 335.461C417.772 334.285 418.78 332.605 418.444 330.925C418.276 332.269 417.436 333.445 415.588 334.453Z" fill="white"/>
<g opacity="0.3">
<path d="M86.3429 82.8152V75.256L84.3271 74.0801C83.8232 77.6077 79.6236 79.9595 76.096 80.4635L52.2425 94.406L41.8276 98.1016L8.73508 81.1354L9.40701 80.6314C6.55131 79.2876 5.03947 76.2639 3.52763 73.5762L1.34386 74.92L0 75.256V82.9832C0 84.495 1.00789 86.0069 2.8557 87.0148L36.1162 106.165C39.9798 108.349 46.3631 108.349 50.2267 106.165L83.4872 87.0148C85.335 85.8389 86.3429 84.495 86.3429 82.9832C86.3429 82.9832 86.3429 82.9832 86.3429 82.8152Z" fill="url(#paint10_linear_45_1305)"/>
<path opacity="0.3" d="M76.096 80.6315L52.2425 94.574L43.1715 97.7657V108.013C45.6912 108.013 48.2109 107.509 50.2267 106.333L83.4872 87.1828C85.335 86.0069 86.3429 84.6631 86.3429 83.1512V82.9832V75.424L84.4951 74.4161H84.3271C83.6552 77.7758 79.4556 80.1275 76.096 80.6315Z" fill="#0F054C"/>
<path d="M36.1162 98.6056L2.8557 79.4556C-1.00789 77.2718 -1.00789 73.5762 2.8557 71.2245L36.1162 52.0745C39.9798 49.8907 46.3631 49.8907 50.2267 52.0745L83.4872 71.2245C87.3508 73.4082 87.3508 77.1038 83.4872 79.2876L50.2267 98.6056C46.3631 100.789 39.9798 100.789 36.1162 98.6056Z" fill="url(#paint11_linear_45_1305)"/>
<g opacity="0.3">
<path d="M36.1162 98.6056L2.8557 79.4556C-1.00789 77.2718 -1.00789 73.5762 2.8557 71.2245L36.1162 52.0745C39.9798 49.8907 46.3631 49.8907 50.2267 52.0745L83.4872 71.2245C87.3508 73.4082 87.3508 77.1038 83.4872 79.2876L50.2267 98.6056C46.3631 100.789 39.9798 100.789 36.1162 98.6056Z" fill="#0F054C"/>
</g>
</g>
<path d="M43.1715 74.4162C40.8197 74.4162 38.6359 73.9122 36.9561 72.9043L3.69562 53.7544C2.0158 52.7465 1.0079 51.4026 1.0079 49.8908C1.0079 48.3789 2.0158 47.0351 3.69562 46.0272L36.9561 27.0452C40.4837 25.0294 46.0272 25.0294 49.5548 27.0452L82.8153 46.1951C84.4951 47.203 85.503 48.5469 85.503 50.0587C85.503 51.5706 84.4951 52.9144 82.8153 53.9223L49.3868 72.9043C47.707 73.9122 45.5232 74.4162 43.1715 74.4162ZM43.1715 26.0373C40.9877 26.0373 38.8039 26.5412 37.1241 27.3811L4.03159 46.6991C2.51975 47.539 1.67983 48.7149 1.67983 49.8908C1.67983 51.0666 2.51975 52.2425 4.03159 53.2504L37.2921 72.4004C40.6517 74.2482 45.8592 74.2482 49.2188 72.4004L82.4793 53.2504C83.9912 52.4105 84.8311 51.2346 84.8311 49.8908C84.8311 48.7149 83.9912 47.539 82.4793 46.5311L49.2188 27.5491C47.539 26.5412 45.3552 26.0373 43.1715 26.0373Z" fill="#C3C7FF"/>
<path opacity="0.4" d="M86.3429 42.6675V31.2447L84.3271 30.0688C83.8232 33.5964 79.6236 35.9482 76.096 36.4521L52.2425 50.3946L41.8276 54.0903L8.73508 36.9561L9.57499 36.4521C6.55131 35.2762 5.03947 32.2526 3.52763 29.3969L1.34386 30.7407L0 31.0767V42.6675C0 44.1793 1.00789 45.6911 2.8557 46.699L36.1162 65.849C39.9798 68.0328 46.3631 68.0328 50.2267 65.849L83.4872 46.699C85.335 45.5232 86.3429 44.1793 86.3429 42.6675Z" fill="#C3C7FF"/>
<path d="M86.3429 32.4205V24.8613L84.3271 23.6855C83.8232 27.2131 79.6236 29.5648 76.096 30.0688L52.2425 44.0113L41.8276 47.7069L8.73508 30.7407L9.40701 30.2368C6.55131 28.8929 5.03947 25.8692 3.52763 23.1815L1.34386 24.5254L0 24.8613V32.5885C0 34.1004 1.00789 35.6122 2.8557 36.6201L36.1162 55.7701C39.9798 57.9539 46.3631 57.9539 50.2267 55.7701L83.4872 36.6201C85.335 35.4442 86.3429 34.1004 86.3429 32.5885C86.3429 32.5885 86.3429 32.5885 86.3429 32.4205Z" fill="url(#paint12_linear_45_1305)"/>
<path opacity="0.3" d="M76.096 30.2368L52.2425 44.1794L43.1715 47.371V57.618C45.6912 57.618 48.2109 57.114 50.2267 55.9381L83.4872 36.7881C85.335 35.6123 86.3429 34.2684 86.3429 32.7566V32.5886V25.0294L84.4951 24.0215H84.3271C83.6552 27.3811 79.4556 29.7329 76.096 30.2368Z" fill="#0F054C"/>
<path d="M36.1162 48.2109L2.8557 29.0609C-1.00789 26.8772 -1.00789 23.1816 2.8557 20.8298L36.1162 1.67982C39.9798 -0.50395 46.3631 -0.50395 50.2267 1.67982L83.4872 20.8298C87.3508 23.0136 87.3508 26.7092 83.4872 29.0609L50.2267 48.2109C46.3631 50.3947 39.9798 50.3947 36.1162 48.2109Z" fill="url(#paint13_linear_45_1305)"/>
<path d="M43.1715 44.6832C41.1557 44.6832 39.1399 44.1793 37.4601 43.3394L11.5908 28.3889C10.0789 27.549 9.23903 26.2052 9.23903 25.0293C9.23903 23.6854 10.0789 22.5096 11.5908 21.6697L37.628 6.71923C40.8197 4.87142 45.8592 4.87142 48.8829 6.71923L74.9201 21.6697C76.432 22.5096 77.2719 23.8534 77.2719 25.0293C77.2719 26.3732 76.432 27.549 74.9201 28.3889L48.8829 43.3394C47.371 44.3473 45.1872 44.6832 43.1715 44.6832ZM43.1715 5.71133C41.1557 5.71133 39.3079 6.21528 37.796 7.05519L11.9267 22.0056C10.5829 22.8455 9.74298 23.8534 9.74298 24.8613C9.74298 26.0372 10.5829 27.0451 11.9267 27.717L37.964 42.6674C40.9877 44.3473 45.6912 44.3473 48.7149 42.6674L74.7521 27.717C76.096 26.8771 76.9359 25.8692 76.9359 24.8613C76.9359 23.6854 76.096 22.6775 74.7521 22.0056L48.5469 7.05519C47.035 6.21528 45.1872 5.71133 43.1715 5.71133Z" fill="#5351AF"/>
<path d="M83.4872 29.061L50.2267 48.2109C46.3631 50.3947 39.9798 50.3947 36.1162 48.2109L2.85571 29.061C1.17589 28.0531 0.167992 26.7092 9.57586e-06 25.5333C-0.167973 27.2131 0.671939 28.893 2.85571 30.0688L36.1162 49.2188C39.9798 51.4026 46.3631 51.4026 50.2267 49.2188L83.4872 30.0688C85.671 28.893 86.6789 27.2131 86.3429 25.5333C86.1749 26.7092 85.1671 28.0531 83.4872 29.061Z" fill="white"/>
</g>
<defs>
<linearGradient id="paint0_linear_45_1305" x1="31.0203" y1="205.256" x2="518.655" y2="205.256" gradientUnits="userSpaceOnUse">
<stop stop-color="#BCBEFF"/>
<stop offset="0.151" stop-color="#A3A7F5"/>
<stop offset="0.3866" stop-color="#8289E8"/>
<stop offset="0.6124" stop-color="#5E66C5"/>
<stop offset="0.8221" stop-color="#4549AF"/>
<stop offset="1" stop-color="#464AAF"/>
</linearGradient>
<linearGradient id="paint1_linear_45_1305" x1="342.758" y1="274.244" x2="206.638" y2="93.6066" gradientUnits="userSpaceOnUse">
<stop stop-color="#42E8E0"/>
<stop offset="0.1055" stop-color="#37B6BF"/>
<stop offset="0.2197" stop-color="#2C87A1"/>
<stop offset="0.338" stop-color="#235F87"/>
<stop offset="0.4587" stop-color="#1C3F72"/>
<stop offset="0.5824" stop-color="#162561"/>
<stop offset="0.7105" stop-color="#121355"/>
<stop offset="0.8458" stop-color="#10084E"/>
<stop offset="1" stop-color="#0F054C"/>
</linearGradient>
<linearGradient id="paint2_linear_45_1305" x1="488.692" y1="324.836" x2="557.246" y2="364.415" gradientUnits="userSpaceOnUse">
<stop stop-color="#BCBEFF"/>
<stop offset="0.2271" stop-color="#AAADF8"/>
<stop offset="0.6802" stop-color="#7C83E5"/>
<stop offset="1" stop-color="#5761D7"/>
</linearGradient>
<linearGradient id="paint3_linear_45_1305" x1="480.096" y1="339.796" x2="566.499" y2="339.796" gradientUnits="userSpaceOnUse">
<stop stop-color="#E9E9FD"/>
<stop offset="0.3601" stop-color="#D3D2F9"/>
<stop offset="0.7062" stop-color="#C5C4F7"/>
<stop offset="1" stop-color="#C0BFF6"/>
</linearGradient>
<linearGradient id="paint4_linear_45_1305" x1="488.692" y1="274.377" x2="557.246" y2="313.956" gradientUnits="userSpaceOnUse">
<stop stop-color="#BCBEFF"/>
<stop offset="0.2271" stop-color="#AAADF8"/>
<stop offset="0.6802" stop-color="#7C83E5"/>
<stop offset="1" stop-color="#5761D7"/>
</linearGradient>
<linearGradient id="paint5_linear_45_1305" x1="480.096" y1="289.338" x2="566.499" y2="289.338" gradientUnits="userSpaceOnUse">
<stop stop-color="#E9E9FD"/>
<stop offset="0.3601" stop-color="#D3D2F9"/>
<stop offset="0.7062" stop-color="#C5C4F7"/>
<stop offset="1" stop-color="#C0BFF6"/>
</linearGradient>
<linearGradient id="paint6_linear_45_1305" x1="340.752" y1="369.607" x2="409.305" y2="409.186" gradientUnits="userSpaceOnUse">
<stop stop-color="#BCBEFF"/>
<stop offset="0.2271" stop-color="#AAADF8"/>
<stop offset="0.6802" stop-color="#7C83E5"/>
<stop offset="1" stop-color="#5761D7"/>
</linearGradient>
<linearGradient id="paint7_linear_45_1305" x1="332.156" y1="384.567" x2="418.559" y2="384.567" gradientUnits="userSpaceOnUse">
<stop stop-color="#E9E9FD"/>
<stop offset="0.3601" stop-color="#D3D2F9"/>
<stop offset="0.7062" stop-color="#C5C4F7"/>
<stop offset="1" stop-color="#C0BFF6"/>
</linearGradient>
<linearGradient id="paint8_linear_45_1305" x1="340.752" y1="315.486" x2="409.305" y2="355.065" gradientUnits="userSpaceOnUse">
<stop stop-color="#BCBEFF"/>
<stop offset="0.2271" stop-color="#AAADF8"/>
<stop offset="0.6802" stop-color="#7C83E5"/>
<stop offset="1" stop-color="#5761D7"/>
</linearGradient>
<linearGradient id="paint9_linear_45_1305" x1="332.156" y1="330.446" x2="418.559" y2="330.446" gradientUnits="userSpaceOnUse">
<stop stop-color="#E9E9FD"/>
<stop offset="0.3601" stop-color="#D3D2F9"/>
<stop offset="0.7062" stop-color="#C5C4F7"/>
<stop offset="1" stop-color="#C0BFF6"/>
</linearGradient>
<linearGradient id="paint10_linear_45_1305" x1="8.59582" y1="60.3761" x2="77.1491" y2="99.9553" gradientUnits="userSpaceOnUse">
<stop stop-color="#BCBEFF"/>
<stop offset="0.2271" stop-color="#AAADF8"/>
<stop offset="0.6802" stop-color="#7C83E5"/>
<stop offset="1" stop-color="#5761D7"/>
</linearGradient>
<linearGradient id="paint11_linear_45_1305" x1="2.43901e-05" y1="75.337" x2="86.4027" y2="75.337" gradientUnits="userSpaceOnUse">
<stop stop-color="#E9E9FD"/>
<stop offset="0.3601" stop-color="#D3D2F9"/>
<stop offset="0.7062" stop-color="#C5C4F7"/>
<stop offset="1" stop-color="#C0BFF6"/>
</linearGradient>
<linearGradient id="paint12_linear_45_1305" x1="8.59582" y1="9.98147" x2="77.1491" y2="49.5606" gradientUnits="userSpaceOnUse">
<stop stop-color="#BCBEFF"/>
<stop offset="0.2271" stop-color="#AAADF8"/>
<stop offset="0.6802" stop-color="#7C83E5"/>
<stop offset="1" stop-color="#5761D7"/>
</linearGradient>
<linearGradient id="paint13_linear_45_1305" x1="2.43901e-05" y1="24.9423" x2="86.4027" y2="24.9423" gradientUnits="userSpaceOnUse">
<stop stop-color="#E9E9FD"/>
<stop offset="0.3601" stop-color="#D3D2F9"/>
<stop offset="0.7062" stop-color="#C5C4F7"/>
<stop offset="1" stop-color="#C0BFF6"/>
</linearGradient>
<clipPath id="clip0_45_1305">
<rect width="566.436" height="417.1" fill="white"/>
</clipPath>
</defs>
</svg>
