<svg width="55" height="55" viewBox="0 0 55 55" fill="none" xmlns="http://www.w3.org/2000/svg">
<rect width="55" height="55" rx="27.5" fill="#545CE7"/>
<path fill-rule="evenodd" clip-rule="evenodd" d="M14.2063 21.5C15.0347 21.5 15.7063 22.1716 15.7063 23V24.9965L17.7051 23.9273C18.4355 23.5366 19.3445 23.812 19.7352 24.5425C20.126 25.273 19.8506 26.1819 19.1201 26.5727L17.3864 27.5L19.1201 28.4273C19.8506 28.8181 20.126 29.727 19.7352 30.4575C19.3445 31.188 18.4355 31.4634 17.7051 31.0727L15.7063 30.0035V32C15.7063 32.8284 15.0347 33.5 14.2063 33.5C13.3778 33.5 12.7063 32.8284 12.7063 32V30.0035L10.7075 31.0727C9.97701 31.4634 9.06808 31.188 8.67733 30.4575C8.28658 29.727 8.56199 28.8181 9.29248 28.4273L11.0261 27.5L9.29248 26.5727C8.56199 26.1819 8.28658 25.273 8.67733 24.5425C9.06808 23.812 9.97701 23.5366 10.7075 23.9273L12.7063 24.9965V23C12.7063 22.1716 13.3778 21.5 14.2063 21.5ZM27 21.5C27.8284 21.5 28.5 22.1716 28.5 23V24.9962L30.4989 23.9273C31.2295 23.5366 32.1384 23.8121 32.529 24.5426C32.9197 25.2732 32.6442 26.1821 31.9136 26.5727L30.1799 27.4999L31.9138 28.4273C32.6443 28.8181 32.9197 29.727 32.5289 30.4575C32.1382 31.188 31.2293 31.4634 30.4988 31.0727L28.5 30.0035V32C28.5 32.8284 27.8284 33.5 27 33.5C26.1716 33.5 25.5 32.8284 25.5 32V30.0025L23.4986 31.0727C22.7681 31.4634 21.8592 31.1879 21.4685 30.4573C21.0779 29.7268 21.3534 28.8179 22.0839 28.4273L23.8189 27.4995L22.0862 26.5727C21.3557 26.1819 21.0803 25.273 21.471 24.5425C21.8618 23.812 22.7707 23.5366 23.5012 23.9273L25.5 24.9965V23C25.5 22.1716 26.1716 21.5 27 21.5ZM39.7937 21.5C40.6221 21.5 41.2937 22.1716 41.2937 23V24.9962L43.2926 23.9273C44.0232 23.5366 44.9321 23.8121 45.3227 24.5426C45.7134 25.2732 45.4379 26.1821 44.7073 26.5727L42.9736 27.4999L44.7075 28.4273C45.438 28.8181 45.7134 29.727 45.3226 30.4575C44.9319 31.188 44.023 31.4634 43.2925 31.0727L41.2937 30.0035V32C41.2937 32.8284 40.6221 33.5 39.7937 33.5C38.9653 33.5 38.2937 32.8284 38.2937 32V30.0025L36.2923 31.0727C35.5618 31.4634 34.6529 31.1879 34.2622 30.4573C33.8716 29.7268 34.1471 28.8179 34.8776 28.4273L36.6126 27.4995L34.8799 26.5727C34.1494 26.1819 33.874 25.273 34.2648 24.5425C34.6555 23.812 35.5644 23.5366 36.2949 23.9273L38.2937 24.9965V23C38.2937 22.1716 38.9653 21.5 39.7937 21.5Z" fill="white"/>
</svg>
