<svg width="55" height="55" viewBox="0 0 55 55" fill="none" xmlns="http://www.w3.org/2000/svg">
<rect width="55" height="55" rx="27.5" fill="#545CE7"/>
<path fill-rule="evenodd" clip-rule="evenodd" d="M23.6 14C17.1936 14 12 19.0493 12 25.2778C12 39.2778 31.2 42 31.2 42V36.5556H32.4C38.8064 36.5556 44 31.5062 44 25.2778C44 19.0493 38.8064 14 32.4 14H23.6ZM28 27.6111C28.5304 27.6111 29.0391 27.4063 29.4142 27.0416C29.7893 26.6769 30 26.1824 30 25.6667C30 25.151 29.7893 24.6564 29.4142 24.2917C29.0391 23.9271 28.5304 23.7222 28 23.7222C27.4696 23.7222 26.9609 23.9271 26.5858 24.2917C26.2107 24.6564 26 25.151 26 25.6667C26 26.1824 26.2107 26.6769 26.5858 27.0416C26.9609 27.4063 27.4696 27.6111 28 27.6111ZM36.4 25.6667C36.4 26.1824 36.1893 26.6769 35.8142 27.0416C35.4391 27.4063 34.9304 27.6111 34.4 27.6111C33.8696 27.6111 33.3609 27.4063 32.9858 27.0416C32.6107 26.6769 32.4 26.1824 32.4 25.6667C32.4 25.151 32.6107 24.6564 32.9858 24.2917C33.3609 23.9271 33.8696 23.7222 34.4 23.7222C34.9304 23.7222 35.4391 23.9271 35.8142 24.2917C36.1893 24.6564 36.4 25.151 36.4 25.6667ZM21.6 27.6111C22.1304 27.6111 22.6391 27.4063 23.0142 27.0416C23.3893 26.6769 23.6 26.1824 23.6 25.6667C23.6 25.151 23.3893 24.6564 23.0142 24.2917C22.6391 23.9271 22.1304 23.7222 21.6 23.7222C21.0696 23.7222 20.5609 23.9271 20.1858 24.2917C19.8107 24.6564 19.6 25.151 19.6 25.6667C19.6 26.1824 19.8107 26.6769 20.1858 27.0416C20.5609 27.4063 21.0696 27.6111 21.6 27.6111Z" fill="white"/>
</svg>
