<svg width="55" height="55" viewBox="0 0 55 55" fill="none" xmlns="http://www.w3.org/2000/svg">
<rect width="55" height="55" rx="27.5" fill="#545CE7"/>
<path d="M31.3761 15C29.8557 15.0014 28.3571 15.3622 27.0028 16.053C25.6485 16.7437 24.4768 17.7449 23.5834 18.9748C22.6899 20.2046 22.1002 21.6282 21.8622 23.1294C21.6242 24.6305 21.7447 26.1667 22.2139 27.6124L15.2818 34.5409C15.1923 34.6304 15.1214 34.7367 15.0731 34.8536C15.0247 34.9705 14.9999 35.0957 15 35.2222V40.037C15 40.2924 15.1015 40.5374 15.2821 40.718C15.4628 40.8985 15.7078 41 15.9633 41H20.7798C21.0353 41 21.2803 40.8985 21.461 40.718C21.6416 40.5374 21.7431 40.2924 21.7431 40.037V38.1111H23.6697C23.9252 38.1111 24.1702 38.0097 24.3509 37.8291C24.5315 37.6485 24.633 37.4035 24.633 37.1481V35.2222H26.5596C26.6861 35.2223 26.8115 35.1975 26.9284 35.1492C27.0453 35.1008 27.1516 35.03 27.2411 34.9406L28.3923 33.7886C29.7162 34.2183 31.1176 34.3561 32.5 34.1924C33.8823 34.0288 35.2127 33.5676 36.3997 32.8406C37.5866 32.1136 38.6018 31.1381 39.3754 29.9813C40.149 28.8245 40.6626 27.5138 40.8809 26.1395C41.0991 24.7652 41.0168 23.3599 40.6397 22.0205C40.2625 20.681 39.5994 19.4392 38.6961 18.3805C37.7927 17.3218 36.6706 16.4713 35.4069 15.8878C34.1433 15.3042 32.7681 15.0013 31.3761 15ZM33.7844 24.1481C33.4033 24.1481 33.0308 24.0352 32.714 23.8236C32.3972 23.6119 32.1502 23.3112 32.0044 22.9592C31.8586 22.6073 31.8204 22.2201 31.8948 21.8465C31.9691 21.4729 32.1526 21.1297 32.422 20.8604C32.6915 20.591 33.0348 20.4076 33.4085 20.3333C33.7822 20.259 34.1696 20.2971 34.5216 20.4429C34.8737 20.5887 35.1746 20.8355 35.3863 21.1522C35.598 21.469 35.711 21.8413 35.711 22.2222C35.711 22.733 35.508 23.2229 35.1467 23.5841C34.7854 23.9452 34.2953 24.1481 33.7844 24.1481Z" fill="white"/>
</svg>
