<svg xmlns="http://www.w3.org/2000/svg" width="185" height="50" viewBox="0 0 185 50" fill="none">
  <circle cx="22.1155" cy="22.1154" r="22.1154" fill="#B5B9FF"/>
  <mask id="mask0_301_77" style="mask-type:luminance" maskUnits="userSpaceOnUse" x="6" y="6" width="32" height="18">
    <path d="M6.73083 6.73083H37.7576V23.17H6.73083V6.73083Z" fill="white"/>
  </mask>
  <g mask="url(#mask0_301_77)">
    <path d="M32.3606 17.3919L37.6634 19.0187L37.6924 19.3071C33.514 20.5001 29.3777 21.8436 25.1571 22.8156C24.2191 23.024 23.2691 23.1285 22.3077 23.1285C21.3464 23.1285 20.3964 23.024 19.4583 22.8156C15.1754 21.8687 10.98 20.529 6.75189 19.365L6.77707 19.0357L12.0667 17.4083C12.4299 15.6852 12.8102 13.9413 13.1866 12.1559C13.4038 11.1297 13.604 10.0701 13.8301 9.06848C14.2103 7.47884 15.2132 6.75295 16.8507 6.84928C17.2335 6.85935 17.6137 6.89649 17.9915 6.96134C19.3822 7.23394 20.7861 7.36992 22.2032 7.36992C23.6204 7.36992 25.0243 7.23394 26.415 6.96134C26.692 6.91664 26.9709 6.88642 27.2511 6.87005C29.2065 6.70699 30.2088 7.42029 30.6268 9.37319C31.1575 11.797 31.6423 14.2334 32.1478 16.666C32.2145 16.8618 32.2857 17.0954 32.3606 17.3919Z" fill="#545CE7"/>
  </g>
  <mask id="mask1_301_77" style="mask-type:luminance" maskUnits="userSpaceOnUse" x="7" y="35" width="30" height="15">
    <path d="M7.53851 35.4186H36.8711V49.9998H7.53851V35.4186Z" fill="white"/>
  </mask>
  <g mask="url(#mask1_301_77)">
    <path d="M7.78919 47.3181C7.39193 42.7707 7.74323 38.5942 11.7126 35.5024L22.2125 43.7428L32.6128 35.5818C36.2939 37.981 37.2256 42.4201 36.586 47.3181C35.9464 52.2161 29.23 48.723 22.2125 48.7346C15.1794 48.7462 8.18644 51.8654 7.78919 47.3181Z" fill="#545CE7"/>
  </g>
  <path d="M13.9093 26.0411C11.2311 25.7156 11.0429 24.7889 11.7323 22.2026C15.1502 23.1703 18.5095 24.4137 22.149 24.447C25.7885 24.4804 29.173 23.1955 32.5947 22.219C33.4308 24.08 33.4308 25.7905 30.5392 26.0367C29.4821 30.63 26.816 33.6506 21.8481 33.4712C17.3102 33.3087 14.8574 30.4008 13.9093 26.0411Z" fill="#545CE7"/>
  <path d="M34.6428 32.2656L24.6396 40.1509C26.2066 36.3584 27.7277 32.5577 30.9825 29.6536L34.6428 32.2656Z" fill="#545CE7"/>
  <path d="M19.7716 39.9544C19.4399 39.787 19.1194 39.5994 18.8109 39.3916C15.8526 37.0717 12.8987 34.7398 9.78552 32.299L13.471 29.6535C13.6964 29.4955 16.6547 33.4378 16.9178 33.8924C18.0296 35.8119 18.8651 37.9398 19.8428 39.9381L19.7716 39.9544Z" fill="#545CE7"/>
  <path d="M25.843 34.1304C24.5644 36.6839 23.4406 38.9283 22.2079 41.3817L18.6188 34.2097C19.1992 34.4162 19.7935 34.5704 20.4017 34.6718C21.0092 34.7732 21.6218 34.8204 22.2381 34.8134C22.8538 34.8065 23.4651 34.7461 24.0708 34.6315C24.6764 34.5163 25.267 34.3495 25.843 34.1304Z" fill="#545CE7"/>
  <path d="M19.8222 39.9047L20.0186 40.0589L19.7719 39.9544L19.8222 39.9047Z" fill="#545CE7"/>
  <path d="M69.8353 17.1759C68.5873 17.1759 67.5153 16.9359 66.6193 16.4559C65.7233 15.9759 65.0353 15.2986 64.5553 14.4239C64.0859 13.5493 63.8513 12.5253 63.8513 11.3519C63.8513 10.1786 64.0859 9.15995 64.5553 8.29595C65.0353 7.42128 65.7233 6.74395 66.6193 6.26395C67.5153 5.78395 68.5873 5.54395 69.8353 5.54395C70.5819 5.54395 71.3019 5.66128 71.9953 5.89595C72.6886 6.11995 73.2486 6.41861 73.6753 6.79195L72.7953 9.11195C72.3259 8.77061 71.8566 8.51995 71.3873 8.35995C70.9179 8.18928 70.4379 8.10394 69.9473 8.10394C68.9553 8.10394 68.2086 8.38661 67.7073 8.95195C67.2059 9.50661 66.9553 10.3066 66.9553 11.3519C66.9553 12.4079 67.2059 13.2186 67.7073 13.7839C68.2086 14.3386 68.9553 14.6159 69.9473 14.6159C70.4379 14.6159 70.9179 14.5359 71.3873 14.3759C71.8566 14.2053 72.3259 13.9493 72.7953 13.6079L73.6753 15.9279C73.2486 16.3013 72.6886 16.6053 71.9953 16.8399C71.3019 17.0639 70.5819 17.1759 69.8353 17.1759Z" fill="black"/>
  <path d="M81.773 17.1759C80.6317 17.1759 79.629 16.9359 78.765 16.4559C77.9117 15.9653 77.245 15.2826 76.765 14.4079C76.285 13.5333 76.045 12.5146 76.045 11.3519C76.045 10.1786 76.2797 9.15995 76.749 8.29595C77.229 7.42128 77.901 6.74395 78.765 6.26395C79.629 5.78395 80.6317 5.54395 81.773 5.54395C82.9143 5.54395 83.9117 5.78395 84.765 6.26395C85.629 6.74395 86.301 7.42128 86.781 8.29595C87.261 9.15995 87.501 10.1786 87.501 11.3519C87.501 12.5146 87.261 13.5333 86.781 14.4079C86.301 15.2826 85.629 15.9653 84.765 16.4559C83.9117 16.9359 82.9143 17.1759 81.773 17.1759ZM81.773 14.7119C82.605 14.7119 83.2557 14.4186 83.725 13.8319C84.205 13.2346 84.445 12.4079 84.445 11.3519C84.445 10.2959 84.2103 9.47461 83.741 8.88795C83.2717 8.30128 82.6157 8.00795 81.773 8.00795C80.9303 8.00795 80.2743 8.30128 79.805 8.88795C79.3357 9.47461 79.101 10.2959 79.101 11.3519C79.101 12.4079 79.3357 13.2346 79.805 13.8319C80.2743 14.4186 80.9303 14.7119 81.773 14.7119Z" fill="black"/>
  <path d="M90.8713 16.9999V5.71994H93.3193L96.9193 12.1839L100.519 5.71994H102.903V16.9999H100.247V10.8719L97.6713 15.3359H96.0713L93.5273 10.9359V16.9999H90.8713Z" fill="black"/>
  <path d="M106.58 16.9999V5.71994H112.004C113.284 5.71994 114.271 6.05061 114.964 6.71195C115.668 7.36261 116.02 8.26395 116.02 9.41595C116.02 10.5679 115.668 11.4746 114.964 12.1359C114.271 12.7866 113.284 13.1119 112.004 13.1119H109.524V16.9999H106.58ZM109.524 10.8559H111.492C112.644 10.8559 113.22 10.3759 113.22 9.41595C113.22 8.45595 112.644 7.97595 111.492 7.97595H109.524V10.8559Z" fill="black"/>
  <path d="M118.992 16.9999V5.71994H121.936V14.5519H126.96V16.9999H118.992Z" fill="black"/>
  <path d="M129.952 16.9999V5.71994H132.896V16.9999H129.952Z" fill="black"/>
  <path d="M135.176 16.9999L140.456 5.71994H142.776L148.056 16.9999H145.112L144.136 14.7119H139.096L138.12 16.9999H135.176ZM141.592 8.79195L140.056 12.4559H143.16L141.624 8.79195H141.592Z" fill="black"/>
  <path d="M150.339 16.9999V5.71994H152.499L157.683 12.1839V5.71994H160.403V16.9999H158.259L153.075 10.5359V16.9999H150.339Z" fill="black"/>
  <path d="M169.76 17.1759C168.512 17.1759 167.44 16.9359 166.544 16.4559C165.648 15.9759 164.96 15.2986 164.48 14.4239C164.011 13.5493 163.776 12.5253 163.776 11.3519C163.776 10.1786 164.011 9.15995 164.48 8.29595C164.96 7.42128 165.648 6.74395 166.544 6.26395C167.44 5.78395 168.512 5.54395 169.76 5.54395C170.507 5.54395 171.227 5.66128 171.92 5.89595C172.614 6.11995 173.174 6.41861 173.6 6.79195L172.72 9.11195C172.251 8.77061 171.782 8.51995 171.312 8.35995C170.843 8.18928 170.363 8.10394 169.872 8.10394C168.88 8.10394 168.134 8.38661 167.632 8.95195C167.131 9.50661 166.88 10.3066 166.88 11.3519C166.88 12.4079 167.131 13.2186 167.632 13.7839C168.134 14.3386 168.88 14.6159 169.872 14.6159C170.363 14.6159 170.843 14.5359 171.312 14.3759C171.782 14.2053 172.251 13.9493 172.72 13.6079L173.6 15.9279C173.174 16.3013 172.614 16.6053 171.92 16.8399C171.227 17.0639 170.507 17.1759 169.76 17.1759Z" fill="black"/>
  <path d="M176.649 16.9999V5.71994H184.617V7.99195H179.465V10.1359H184.249V12.4079H179.465V14.7279H184.617V16.9999H176.649Z" fill="black"/>
  <path d="M69.5793 39.1759C68.4379 39.1759 67.4353 38.9359 66.5713 38.4559C65.7179 37.9653 65.0513 37.2826 64.5713 36.4079C64.0913 35.5333 63.8513 34.5146 63.8513 33.3519C63.8513 32.1786 64.0859 31.1599 64.5553 30.2959C65.0353 29.4213 65.7073 28.7439 66.5713 28.2639C67.4353 27.7839 68.4379 27.5439 69.5793 27.5439C70.7206 27.5439 71.7179 27.7839 72.5713 28.2639C73.4353 28.7439 74.1073 29.4213 74.5873 30.2959C75.0673 31.1599 75.3073 32.1786 75.3073 33.3519C75.3073 34.5146 75.0673 35.5333 74.5873 36.4079C74.1073 37.2826 73.4353 37.9653 72.5713 38.4559C71.7179 38.9359 70.7206 39.1759 69.5793 39.1759ZM69.5793 36.7119C70.4113 36.7119 71.0619 36.4186 71.5313 35.8319C72.0113 35.2346 72.2513 34.4079 72.2513 33.3519C72.2513 32.2959 72.0166 31.4746 71.5473 30.8879C71.0779 30.3013 70.4219 30.0079 69.5793 30.0079C68.7366 30.0079 68.0806 30.3013 67.6113 30.8879C67.1419 31.4746 66.9073 32.2959 66.9073 33.3519C66.9073 34.4079 67.1419 35.2346 67.6113 35.8319C68.0806 36.4186 68.7366 36.7119 69.5793 36.7119Z" fill="black"/>
  <path d="M78.6455 38.9999V27.7199H86.5175V29.9919H81.5895V32.2639H86.1655V34.5199H81.5895V38.9999H78.6455Z" fill="black"/>
  <path d="M89.5111 38.9999V27.7199H97.3831V29.9919H92.4551V32.2639H97.0311V34.5199H92.4551V38.9999H89.5111Z" fill="black"/>
  <path d="M100.377 38.9999V27.7199H103.321V38.9999H100.377Z" fill="black"/>
  <path d="M112.657 39.1759C111.409 39.1759 110.337 38.9359 109.441 38.4559C108.545 37.9759 107.857 37.2986 107.377 36.4239C106.908 35.5493 106.673 34.5253 106.673 33.3519C106.673 32.1786 106.908 31.1599 107.377 30.2959C107.857 29.4213 108.545 28.7439 109.441 28.2639C110.337 27.7839 111.409 27.5439 112.657 27.5439C113.404 27.5439 114.124 27.6613 114.817 27.8959C115.51 28.1199 116.07 28.4186 116.497 28.7919L115.617 31.1119C115.148 30.7706 114.678 30.5199 114.209 30.3599C113.74 30.1893 113.26 30.1039 112.769 30.1039C111.777 30.1039 111.03 30.3866 110.529 30.9519C110.028 31.5066 109.777 32.3066 109.777 33.3519C109.777 34.4079 110.028 35.2186 110.529 35.7839C111.03 36.3386 111.777 36.6159 112.769 36.6159C113.26 36.6159 113.74 36.5359 114.209 36.3759C114.678 36.2053 115.148 35.9493 115.617 35.6079L116.497 37.9279C116.07 38.3013 115.51 38.6053 114.817 38.8399C114.124 39.0639 113.404 39.1759 112.657 39.1759Z" fill="black"/>
  <path d="M119.546 38.9999V27.7199H127.514V29.9919H122.362V32.1359H127.146V34.4079H122.362V36.7279H127.514V38.9999H119.546Z" fill="black"/>
  <path d="M130.974 38.9999V27.7199H136.398C137.678 27.7199 138.664 28.0346 139.358 28.6639C140.062 29.2826 140.414 30.1466 140.414 31.2559C140.414 32.0986 140.2 32.8079 139.774 33.3839C139.358 33.9493 138.75 34.3439 137.95 34.5679C138.547 34.7279 139.027 35.1386 139.39 35.7999L141.15 38.9999H137.918L135.966 35.4159C135.838 35.1919 135.672 35.0319 135.47 34.9359C135.278 34.8399 135.054 34.7919 134.798 34.7919H133.918V38.9999H130.974ZM133.918 32.7119H135.87C137.032 32.7119 137.614 32.2533 137.614 31.3359C137.614 30.4293 137.032 29.9759 135.87 29.9759H133.918V32.7119Z" fill="black"/>
</svg>