<svg width="20" height="20" viewBox="0 0 20 20" fill="none" xmlns="http://www.w3.org/2000/svg">
<path d="M10 0.000244141C4.48 0.000244141 0 4.48024 0 10.0002C0 15.5202 4.48 20.0002 10 20.0002C15.52 20.0002 20 15.5202 20 10.0002C20 4.48024 15.52 0.000244141 10 0.000244141ZM14.64 6.80024C14.49 8.38024 13.84 12.2202 13.51 13.9902C13.37 14.7402 13.09 14.9902 12.83 15.0202C12.25 15.0702 11.81 14.6402 11.25 14.2702C10.37 13.6902 9.87 13.3302 9.02 12.7702C8.03 12.1202 8.67 11.7602 9.24 11.1802C9.39 11.0302 11.95 8.70024 12 8.49024C12.0069 8.45844 12.006 8.42542 11.9973 8.39405C11.9886 8.36268 11.9724 8.33391 11.95 8.31024C11.89 8.26024 11.81 8.28024 11.74 8.29024C11.65 8.31024 10.25 9.24024 7.52 11.0802C7.12 11.3502 6.76 11.4902 6.44 11.4802C6.08 11.4702 5.4 11.2802 4.89 11.1102C4.26 10.9102 3.77 10.8002 3.81 10.4502C3.83 10.2702 4.08 10.0902 4.55 9.90024C7.47 8.63024 9.41 7.79024 10.38 7.39024C13.16 6.23024 13.73 6.03024 14.11 6.03024C14.19 6.03024 14.38 6.05024 14.5 6.15024C14.6 6.23024 14.63 6.34024 14.64 6.42024C14.63 6.48024 14.65 6.66024 14.64 6.80024Z" fill="white"/>
</svg>
